<?xml version="1.0" encoding="utf-8"?>
<!-- Generator: Adobe Illustrator 25.4.1, SVG Export Plug-In . SVG Version: 6.00 Build 0)  -->
<svg version="1.1" id="Layer_1" xmlns="http://www.w3.org/2000/svg" xmlns:xlink="http://www.w3.org/1999/xlink" x="0px" y="0px"
	 viewBox="0 0 1000 1000" style="enable-background:new 0 0 1000 1000;" xml:space="preserve">
<style type="text/css">
	.st0{fill:#FFFFFF;}
	.st1{fill:none;stroke:#FFFFFF;stroke-miterlimit:10;}
</style>
<g>
	<path d="M90.2,487.1c1.6-6.5,2-13.3,3.8-19.8c8.6-30.9,26.5-55.8,49.3-77.5c28-26.6,60.8-45.6,95.7-61.5
		c43-19.5,88.2-31.7,134.6-39.9c52.6-9.3,105.6-12.3,159-9.9c75.9,3.4,149.6,17.2,219.9,46.5c41.6,17.3,79.8,40.1,111.4,72.5
		c24,24.6,40.7,53.8,44.9,88.4c2.8,22.8-1.9,44.8-10.7,66.1c-10.7,26-29.2,45.8-49.3,64.3c-25.1,23-54.4,39.5-85.1,53.4
		c-47.6,21.6-97.6,35-149.2,43.4c-52.1,8.4-104.5,10.7-157.1,7.9c-72.2-3.8-142.4-17.5-209.3-45.6c-37-15.6-71.8-34.9-101.7-62.1
		c-25.6-23.3-44.7-50.9-53.4-84.8c-1.4-5.4-2-11-3-16.6C90.2,503.7,90.2,495.4,90.2,487.1z"/>
	<path class="st0" d="M511.6,705.8c35-0.2,77.6-3.8,119.8-11.7c51.2-9.6,100.5-24.7,146.7-49.2c26.9-14.3,52.4-30.6,73.2-53.2
		c21.6-23.3,36.9-49.3,39.6-82c3.2-38.4-11.3-70.3-36.1-97.6c-33.4-36.7-76-60.2-121.8-77.9c-57.8-22.4-118.1-34.1-179.8-38.3
		c-49.3-3.4-98.6-2.6-147.7,3.9c-43.7,5.8-86.5,15.1-127.9,30.2c-41,14.9-79.8,34-113.1,62.8c-21.2,18.3-39,39.1-49.2,65.8
		c-10.8,28.4-10.8,56.8,0.8,84.6c12.3,29.5,32.5,53,58.1,72.2c41.3,30.9,87.6,51.2,136.8,65.3C374.1,698.7,438.3,706.6,511.6,705.8z
		"/>
	<path d="M637,322.9c1.6-0.4,2.7-0.1,4,0.2c36.7,9.7,73.1,20.4,107.6,36.5c32.3,15.1,62.6,33.5,87.7,59.2
		c15.1,15.4,27.4,32.7,33.8,53.6c7.4,24,3,46.9-7.5,68.9c-14,29.5-35.7,52.3-62.2,71.1c-28.7,20.3-60.4,34.2-93.3,45.8
		c-5.6,2-11.3,3.7-17,5.5c-0.8,0.3-1.6,0.5-2.2-0.2c13.1-13.4,25.3-27.5,34.3-44c7.5-13.7,12.3-28.1,11.9-44
		c-0.6-21.3-13.9-34.6-35.1-35.4c-9.3-0.3-18.2,1.6-26.8,4.7c-19.6,7-36.2,18.9-52,32.2c-2.7,2.3-5,6.4-8.5,6
		c-3.3-0.4-4-5.1-6.1-7.7c-3.6-4.7-7-9.7-11.8-13.3c-7.2-5.5-14.8-6.5-23-2.5c-6.3,3.1-11.7,7.3-16.2,12.8
		c-12.9,15.6-22.8,33-32.5,50.6c-7.8,14.1-15.4,28.2-23.2,42.5c-1.8-1.9-3-4.2-4.2-6.4c-12.7-23.8-24.8-48-39.8-70.5
		c-5.5-8.3-11.6-16.2-19.2-22.8c-0.9-0.8-1.9-1.7-2.9-2.4c-15.1-10.4-23.9-7.6-34.3,3.5c-3.7,4-6.4,8.7-9.3,13.2
		c-2.9,4.5-3.2,4.6-7.1,1.2c-11.9-10.4-24.3-20.2-38.2-27.9c-12.5-7.1-25.6-12.6-40.2-13.4c-7.7-0.4-15.3,0.6-22.3,3.8
		c-12.5,5.8-17.2,17-18,29.7c-1.2,17.7,4.6,33.8,13.3,49c8,13.9,18.1,26.2,29.3,37.6c1.1,1.1,2.5,2.1,3.7,3.1
		c-0.5,1.4-1.4,0.9-2.1,0.7c-39.8-12.3-78-28-112.1-52.3c-25.9-18.4-46.7-41.2-60.6-69.9c-17.9-36.8-13.8-71.6,10.5-104.2
		c19.1-25.7,43.9-44.9,71.2-60.9c37.8-22.2,78.6-36.8,120.8-48.2c5.9-1.6,11.7-3.3,17.6-4.9c1.7-0.5,3.4-1.2,5.5-0.6
		c-0.1,1.7-1.6,2.3-2.5,3.4c-10.1,11.5-20.1,22.9-26.1,37.2c-10.2,24.2-3.5,45.7,18.9,59.4c17.3,10.6,36.1,13.5,55.9,11.5
		c10.7-1.1,18.9-6.9,25.4-15c11.1-13.7,17.7-29.3,19.2-47c1.6-18.9,3.2-37.8,4.9-56.7c0.2-2.3-0.2-5.6,2.3-6.2
		c2.8-0.7,3.9,2.7,5.1,4.7c3.4,5.9,6.6,11.9,8.9,18.3c1.2,3.3,3.4,4.8,6.6,4.4c13.3-1.7,26.5-1.7,39.8,0.2c3.3,0.5,5.2-2.4,6.5-5
		c2.7-5.6,5.1-11.4,7.9-16.9c1-2,1.6-5.4,4.1-5.2c2.8,0.3,2.8,3.8,3.2,6.1c2.8,15,3.9,30.2,4.7,45.4c0.8,15.8,3.4,31.1,11.6,44.9
		c3.6,6.1,7.5,12,12.5,17c5.8,5.8,12.6,9.8,21,10.8c19.5,2.2,38.2-0.5,55.3-10.6c23.2-13.7,30.4-36.9,19.2-61.5
		c-6.1-13.4-14.9-24.9-25-35.5C638.9,325.5,637.5,324.8,637,322.9z"/>
</g>
</svg>
